<?xml version="1.0" encoding="UTF-8" standalone="no"?>
<!-- Created with Inkscape (http://www.inkscape.org/) -->

<svg
   xmlns:dc="http://purl.org/dc/elements/1.1/"
   xmlns:cc="http://creativecommons.org/ns#"
   xmlns:rdf="http://www.w3.org/1999/02/22-rdf-syntax-ns#"
   xmlns:svg="http://www.w3.org/2000/svg"
   xmlns="http://www.w3.org/2000/svg"
   xmlns:xlink="http://www.w3.org/1999/xlink"
   xmlns:sodipodi="http://sodipodi.sourceforge.net/DTD/sodipodi-0.dtd"
   xmlns:inkscape="http://www.inkscape.org/namespaces/inkscape"
   width="48"
   height="48"
   id="svg2"
   version="1.1"
   inkscape:version="0.48.4 r9939"
   sodipodi:docname="minifier.svg">
  <defs
     id="defs4">
    <linearGradient
       id="linearGradient3881">
      <stop
         id="stop3901"
         offset="0"
         style="stop-color:#ffffff;stop-opacity:0;" />
      <stop
         style="stop-color:#ffffff;stop-opacity:1;"
         offset="1"
         id="stop3885" />
    </linearGradient>
    <inkscape:path-effect
       effect="envelope"
       id="path-effect2996-5-6"
       is_visible="true"
       yy="true"
       xx="true"
       bendpath1="m 110.76655,397.55549 c 87.89681,36.03384 48.76862,38.55606 129.71875,0"
       bendpath2="m 241.47768,413.43362 0,48.40625"
       bendpath3="m 111.75893,461.83987 129.71875,0"
       bendpath4="m 111.75893,413.43362 0,48.40625"
       bendpath1-nodetypes="cc" />
    <linearGradient
       inkscape:collect="always"
       xlink:href="#linearGradient3881"
       id="linearGradient3887"
       x1="123.75572"
       y1="505.35229"
       x2="130.94479"
       y2="505.35229"
       gradientUnits="userSpaceOnUse"
       gradientTransform="translate(4.1234622,-10.634192)" />
    <linearGradient
       id="linearGradient3881-0">
      <stop
         id="stop3901-3"
         offset="0"
         style="stop-color:#ffffff;stop-opacity:0;" />
      <stop
         style="stop-color:#ffffff;stop-opacity:1;"
         offset="1"
         id="stop3885-3" />
    </linearGradient>
    <linearGradient
       gradientTransform="translate(3.8346397,-13.873132)"
       y2="505.35229"
       x2="130.94479"
       y1="505.35229"
       x1="123.75572"
       gradientUnits="userSpaceOnUse"
       id="linearGradient3920"
       xlink:href="#linearGradient3881-0"
       inkscape:collect="always" />
    <linearGradient
       id="linearGradient3881-4">
      <stop
         id="stop3901-9"
         offset="0"
         style="stop-color:#ffffff;stop-opacity:0;" />
      <stop
         style="stop-color:#ffffff;stop-opacity:1;"
         offset="1"
         id="stop3885-9" />
    </linearGradient>
    <linearGradient
       gradientTransform="translate(3.8346397,-7.9935233)"
       y2="505.35229"
       x2="130.94479"
       y1="505.35229"
       x1="123.75572"
       gradientUnits="userSpaceOnUse"
       id="linearGradient3920-1"
       xlink:href="#linearGradient3881-4"
       inkscape:collect="always" />
  </defs>
  <sodipodi:namedview
     id="base"
     pagecolor="#ffffff"
     bordercolor="#666666"
     borderopacity="1.0"
     inkscape:pageopacity="0.0"
     inkscape:pageshadow="2"
     inkscape:zoom="4.6077784"
     inkscape:cx="56.033355"
     inkscape:cy="19.618026"
     inkscape:document-units="px"
     inkscape:current-layer="layer1"
     showgrid="false"
     inkscape:window-width="953"
     inkscape:window-height="711"
     inkscape:window-x="1"
     inkscape:window-y="73"
     inkscape:window-maximized="0"
     fit-margin-top="0"
     fit-margin-left="0"
     fit-margin-right="0"
     fit-margin-bottom="0" />
  <metadata
     id="metadata7">
    <rdf:RDF>
      <cc:Work
         rdf:about="">
        <dc:format>image/svg+xml</dc:format>
        <dc:type
           rdf:resource="http://purl.org/dc/dcmitype/StillImage" />
        <dc:title />
      </cc:Work>
    </rdf:RDF>
  </metadata>
  <g
     inkscape:groupmode="layer"
     id="layer5"
     inkscape:label="bg"
     transform="translate(-107.18311,-475.01784)">
    <path
       style="fill:#656565;fill-opacity:1;stroke:#000000;stroke-width:1;stroke-linecap:butt;stroke-linejoin:miter;stroke-miterlimit:4.5999999;stroke-opacity:1;stroke-dasharray:none;display:inline"
       d="m 129.31763,497.57753 c 3.25663,0.0214 3.23308,-0.0432 6.48927,-0.063 -0.98567,-0.74078 -1.91639,-1.65493 -1.91639,-1.65493 l 1.65071,-1.40647 -1.61343,-1.36302 1.64586,-1.45531 -1.52624,-1.10319 1.47092,-2.10078 -8.37778,-0.12168 0.008,2.11183 1.83055,1.43326 -1.68424,1.28377 1.78053,1.2798 -1.62523,1.69018 c 0,0 1.69891,1.12703 2.21387,1.63573"
       id="path3847"
       inkscape:connector-curvature="0"
       sodipodi:nodetypes="ccccccccccccccc"
       inkscape:export-filename="/home/rob/Code/python/Minifier/path3866.png"
       inkscape:export-xdpi="90"
       inkscape:export-ydpi="90" />
  </g>
  <g
     inkscape:label="Layer 1"
     inkscape:groupmode="layer"
     id="layer1"
     transform="translate(-107.18311,-475.01784)">
    <g
       transform="matrix(0.3054728,0,0,0.32415658,77.699031,362.27658)"
       style="font-size:40px;font-style:normal;font-weight:normal;line-height:125%;letter-spacing:0px;word-spacing:0px;fill:#9a9cff;fill-opacity:1;stroke:#000f67;stroke-width:0.89686102;stroke-miterlimit:4;stroke-opacity:1;stroke-dasharray:none;font-family:Sans"
       id="text2985-9-9"
       inkscape:path-effect="#path-effect2996-5-6"
       inkscape:export-filename="/home/rob/Code/python/Minifier/path3866.png"
       inkscape:export-xdpi="90"
       inkscape:export-ydpi="90">
      <path
         inkscape:connector-curvature="0"
         d="m 150.09348,457.80267 c -1.91055,1.117 -3.92661,2.00437 -6.12149,2.62047 -2.19497,0.61611 -4.58614,0.94638 -7.18501,0.94064 -3.87758,-0.009 -7.54554,-0.6576 -10.81516,-1.91516 -3.26961,-1.25756 -6.11809,-3.10786 -8.3769,-5.34732 -2.25917,-2.25035 -3.76431,-4.69902 -4.67602,-7.41449 -0.91172,-2.71547 -1.25087,-5.69403 -1.26364,-9.43357 -0.006,-1.875 0.071,-3.7579 0.25647,-5.65958 0.18548,-1.90167 0.48025,-3.82147 0.91702,-5.72861 0.87353,-3.81429 2.3305,-7.59103 4.53695,-10.77548 2.20657,-3.19943 5.00653,-5.52638 8.23465,-6.58647 3.22812,-1.06009 6.86,-0.8482 10.70462,0.44738 2.57675,0.86841 4.95178,2.16039 7.14116,3.65804 2.18928,1.49772 4.21008,3.19089 6.1381,4.96318 -0.6553,2.75585 -0.77748,5.72419 -0.79049,8.77957 -2.14607,-1.85623 -4.23407,-3.40218 -6.29711,-4.55477 -2.06313,-1.15252 -4.24329,-1.99147 -6.54578,-2.37751 -2.06227,-0.3457 -3.91524,-0.19786 -5.53306,0.46861 -1.61782,0.66647 -2.99672,1.85087 -4.11869,3.47265 -1.12199,1.62183 -1.91553,3.57376 -2.41864,5.73428 -0.50311,2.16051 -0.71991,4.5238 -0.7062,7.04167 0.0136,2.50705 0.25574,4.64509 0.78441,6.5212 0.52868,1.8761 1.34782,3.49002 2.49511,4.87736 2.29454,2.77472 5.62064,4.27048 9.76665,4.39378 2.31447,0.0688 4.49942,-0.21743 6.55746,-0.84478 2.05797,-0.62732 4.13052,-1.64106 6.24967,-3.01196 0.0898,3.20314 0.30045,6.42485 1.06592,9.73087 z"
         style="font-size:64px;font-weight:bold;fill:#9a9cff;fill-opacity:1;stroke:#000f67;stroke-width:3.17787123;stroke-miterlimit:4;stroke-opacity:1;stroke-dasharray:none;-inkscape-font-specification:Sans Bold"
         id="path2990-4-2"
         inkscape:original-d="m 151.44643,458.37112 c -2.20838,1.14584 -4.51046,2.01042 -6.90625,2.59375 -2.39587,0.58334 -4.89587,0.875 -7.5,0.875 -7.77086,0 -13.9271,-2.16666 -18.46875,-6.5 -4.54168,-4.35415 -6.81251,-10.24998 -6.8125,-17.6875 -1e-5,-7.4583 2.27082,-13.35413 6.8125,-17.6875 4.54165,-4.35412 10.69789,-6.5312 18.46875,-6.53125 2.60413,5e-5 5.10413,0.29172 7.5,0.875 2.39579,0.58338 4.69787,1.44797 6.90625,2.59375 l 0,9.65625 c -2.22921,-1.52079 -4.42713,-2.63538 -6.59375,-3.34375 -2.1667,-0.70829 -4.44795,-1.06246 -6.84375,-1.0625 -4.2917,4e-5 -7.66669,1.37504 -10.125,4.125 -2.45835,2.75004 -3.68752,6.5417 -3.6875,11.375 -2e-5,4.81252 1.22915,8.59377 3.6875,11.34375 2.45831,2.75001 5.8333,4.12501 10.125,4.125 2.3958,10e-6 4.67705,-0.35415 6.84375,-1.0625 2.16662,-0.70832 4.36454,-1.8229 6.59375,-3.34375 l 0,9.65625" />
      <path
         inkscape:connector-curvature="0"
         d="m 195.87811,421.18448 c 1.05801,1.76415 1.40509,4.06336 1.55918,6.65764 -2.643,-0.25615 -5.35867,-0.11782 -8.11669,0.16144 -0.2287,0.0232 -0.45713,0.0472 -0.68529,0.072 0,0 0,0 0,0 -2.58622,0.31149 -5.21024,0.60141 -7.79939,0.75632 -0.88847,0.0532 -1.73625,0.0862 -2.53859,0.1069 0,0 0,0 0,0 -2.54828,0.009 -4.39907,-0.0391 -5.69146,0.1367 -1.69423,0.2305 -2.50831,0.85412 -2.51156,2.04249 -0.002,0.89132 0.5338,1.72969 1.65244,2.41047 1.14366,0.668 3.21731,1.38213 6.53654,1.86422 0.0368,0.005 0.0736,0.0105 0.11042,0.0157 2.32775,0.26292 4.55321,0.39736 6.66024,0.44878 1.41669,0.0342 2.69099,0.0621 3.83995,0.10887 0,0 0,0 0,0 4.00543,0.23778 6.69252,0.97846 8.42262,2.27755 1.10605,0.83056 1.91561,1.94568 2.45534,3.32971 0.53973,1.38402 0.81318,3.03586 0.79066,4.93643 -0.0296,2.49705 -0.49618,4.71999 -1.45106,6.63389 -0.95487,1.9139 -2.40043,3.51946 -4.25983,4.78117 -2.0535,1.39179 -4.63187,2.3702 -7.55568,2.94194 -2.34676,0.46399 -4.89072,0.65707 -7.73839,0.66042 -0.28132,3.3e-4 -0.56287,-0.001 -0.84501,-0.005 -2.74943,-0.0417 -5.55527,-0.26139 -8.47147,-0.74962 -0.18024,-0.0302 -0.36071,-0.0614 -0.54137,-0.0936 -3.03412,-0.53224 -6.16992,-1.33873 -9.27121,-2.43851 -0.88045,-3.2456 -1.13102,-6.50641 -1.24943,-9.76577 2.98606,1.74769 6.01477,3.117 9.00421,4.10182 0.0701,0.0239 0.14024,0.0475 0.21048,0.0708 3.12051,1.01383 6.37444,1.55138 9.69914,1.63058 0.14344,0.003 0.28586,0.006 0.42725,0.007 0,0 0,0 0,0 3.23211,-0.0413 5.56577,-0.56124 7.2104,-1.44027 1.71748,-0.91797 2.57164,-2.16983 2.60604,-3.68095 0.0308,-1.35609 -0.51349,-2.33537 -1.66814,-2.95297 -1.12954,-0.62005 -3.41535,-1.02084 -7.25784,-1.53378 -0.31654,-0.0424 -0.6351,-0.0866 -0.95561,-0.13261 -1.78359,-0.30796 -3.49785,-0.6598 -5.13662,-1.04706 -2.12478,-0.49096 -3.91559,-1.09567 -5.4374,-1.77275 -2.59964,-1.12844 -4.56784,-2.43419 -6.00087,-3.89177 -1.12012,-1.14874 -1.95301,-2.43831 -2.51638,-3.84273 -0.56337,-1.40442 -0.85996,-2.92708 -0.86106,-4.48889 -0.001,-1.9566 0.43078,-3.49346 1.32695,-4.54578 0.89616,-1.05232 2.25638,-1.61076 4.02949,-1.70685 1.45127,-0.0786 3.13523,0.15466 5.01084,0.55605 1.35427,0.29235 2.8172,0.66215 4.37442,0.9836 1.55722,0.32145 3.20608,0.59353 4.98574,0.63172 0.005,1.1e-4 0.009,2.2e-4 0.0136,3.2e-4 2.74548,0.0636 5.59823,-0.51674 8.53997,-1.38871 0.10922,-0.0327 0.21855,-0.0657 0.32799,-0.0992 2.82851,-0.86319 5.76114,-1.90796 8.76641,-2.74834 z"
         style="font-size:64px;font-weight:bold;fill:#9a9cff;fill-opacity:1;stroke:#000f67;stroke-width:3.17787123;stroke-miterlimit:4;stroke-opacity:1;stroke-dasharray:none;-inkscape-font-specification:Sans Bold"
         id="path2992-8-9"
         inkscape:original-d="m 195.16518,415.74612 0,9.875 c -2.56254,-1.14579 -5.06254,-2.01038 -7.5,-2.59375 -2.43753,-0.58329 -4.73961,-0.87496 -6.90625,-0.875 -2.87502,4e-5 -5.00002,0.39588 -6.375,1.1875 -1.37502,0.79171 -2.06252,2.02087 -2.0625,3.6875 -2e-5,1.25004 0.45831,2.2292 1.375,2.9375 0.93748,0.68753 2.62498,1.28128 5.0625,1.78125 l 5.125,1.03125 c 5.18746,1.0417 8.87496,2.62503 11.0625,4.75 2.18746,2.12503 3.2812,5.14586 3.28125,9.0625 -5e-5,5.14585 -1.53129,8.97918 -4.59375,11.5 -3.0417,2.5 -7.69795,3.75 -13.96875,3.75 -2.95836,0 -5.9271,-0.28125 -8.90625,-0.84375 -2.97918,-0.5625 -5.95834,-1.39583 -8.9375,-2.5 l 0,-10.15625 c 2.97916,1.58335 5.85415,2.78126 8.625,3.59375 2.79165,0.79168 5.47914,1.18751 8.0625,1.1875 2.62497,10e-6 4.63539,-0.43749 6.03125,-1.3125 1.3958,-0.87499 2.09372,-2.12498 2.09375,-3.75 -3e-5,-1.45831 -0.4792,-2.58331 -1.4375,-3.375 -0.93753,-0.79165 -2.82295,-1.49998 -5.65625,-2.125 l -4.65625,-1.03125 c -4.66668,-0.99998 -8.08335,-2.59372 -10.25,-4.78125 -2.14584,-2.18747 -3.21876,-5.13538 -3.21875,-8.84375 -1e-5,-4.64579 1.49999,-8.2187 4.5,-10.71875 2.99998,-2.49995 7.31248,-3.74995 12.9375,-3.75 2.56247,5e-5 5.19789,0.19797 7.90625,0.59375 2.7083,0.37505 5.51038,0.94797 8.40625,1.71875" />
      <path
         inkscape:connector-curvature="0"
         d="m 238.24911,408.72296 c 0.6697,5.36357 0.70066,10.11184 0.62335,14.37072 -2.40372,-1.76228 -4.79934,-3.01683 -7.14877,-3.74327 -2.3495,-0.72634 -4.57913,-0.91806 -6.65607,-0.68508 -2.75597,0.30927 -4.75945,1.13424 -6.02691,2.22856 -1.2675,1.09442 -1.86246,2.52388 -1.83734,4.30457 0.0188,1.33559 0.45166,2.31802 1.31684,2.99514 0.88499,0.65319 2.47601,1.15837 4.76413,1.6188 1.60371,0.31547 3.20221,0.67439 4.79658,1.07532 4.84144,1.21513 8.22434,3.37242 10.24927,5.79103 1.01242,1.20933 1.78074,2.59114 2.32721,4.1087 0.54646,1.51757 0.87504,3.16752 0.9796,4.99548 0.13731,2.40164 -0.0852,4.48516 -0.7711,6.35576 -0.68587,1.87059 -1.83555,3.52071 -3.43742,4.89409 -1.59086,1.36203 -3.64919,2.4548 -6.09402,3.19376 -2.44483,0.73897 -5.2706,1.11886 -8.39854,1.12471 -2.95132,0.006 -5.81902,-0.32235 -8.60475,-0.92335 -2.78576,-0.60099 -5.48561,-1.45894 -8.16959,-2.51019 0.80481,-3.48625 0.97532,-6.86689 1.02957,-10.22799 2.85876,1.36562 5.59157,2.42694 8.22959,3.14226 2.65897,0.69319 5.22786,1.02701 7.70906,0.97459 2.52116,-0.0532 4.46267,-0.52575 5.79328,-1.42072 1.33055,-0.89496 1.96636,-2.14178 1.91648,-3.75746 -0.0448,-1.44992 -0.53498,-2.57456 -1.45661,-3.38239 -0.90218,-0.80738 -2.68404,-1.55986 -5.35775,-2.16745 -1.46468,-0.33421 -2.93104,-0.64998 -4.40004,-0.94631 -4.41639,-0.85693 -7.68503,-2.1997 -9.7527,-4.16591 -1.0239,-0.98407 -1.78913,-2.15858 -2.29882,-3.52398 -0.5097,-1.3654 -0.76085,-2.92069 -0.79462,-4.66878 -0.0423,-2.18997 0.20603,-4.13778 0.72755,-5.96193 0.52152,-1.82415 1.3177,-3.53317 2.45494,-5.22366 1.13724,-1.69044 2.58756,-3.31304 4.463,-4.79202 1.87544,-1.47897 4.18197,-2.81368 6.96045,-3.71415 2.53149,-0.82033 5.22922,-1.28002 8.05246,-1.20472 2.81631,0.0444 5.7792,0.62046 8.81169,1.84587 z"
         style="font-size:64px;font-weight:bold;fill:#9a9cff;fill-opacity:1;stroke:#000f67;stroke-width:3.17787123;stroke-miterlimit:4;stroke-opacity:1;stroke-dasharray:none;-inkscape-font-specification:Sans Bold"
         id="path2994-4-0"
         inkscape:original-d="m 238.41518,415.74612 0,9.875 c -2.56254,-1.14579 -5.06254,-2.01038 -7.5,-2.59375 -2.43753,-0.58329 -4.73961,-0.87496 -6.90625,-0.875 -2.87502,4e-5 -5.00002,0.39588 -6.375,1.1875 -1.37502,0.79171 -2.06252,2.02087 -2.0625,3.6875 -2e-5,1.25004 0.45831,2.2292 1.375,2.9375 0.93748,0.68753 2.62498,1.28128 5.0625,1.78125 l 5.125,1.03125 c 5.18746,1.0417 8.87496,2.62503 11.0625,4.75 2.18746,2.12503 3.2812,5.14586 3.28125,9.0625 -5e-5,5.14585 -1.53129,8.97918 -4.59375,11.5 -3.0417,2.5 -7.69795,3.75 -13.96875,3.75 -2.95836,0 -5.9271,-0.28125 -8.90625,-0.84375 -2.97918,-0.5625 -5.95834,-1.39583 -8.9375,-2.5 l 0,-10.15625 c 2.97916,1.58335 5.85415,2.78126 8.625,3.59375 2.79165,0.79168 5.47914,1.18751 8.0625,1.1875 2.62497,10e-6 4.63539,-0.43749 6.03125,-1.3125 1.3958,-0.87499 2.09372,-2.12498 2.09375,-3.75 -3e-5,-1.45831 -0.4792,-2.58331 -1.4375,-3.375 -0.93753,-0.79165 -2.82295,-1.49998 -5.65625,-2.125 l -4.65625,-1.03125 c -4.66668,-0.99998 -8.08335,-2.59372 -10.25,-4.78125 -2.14584,-2.18747 -3.21876,-5.13538 -3.21875,-8.84375 -1e-5,-4.64579 1.49999,-8.2187 4.5,-10.71875 2.99998,-2.49995 7.31248,-3.74995 12.9375,-3.75 2.56247,5e-5 5.19789,0.19797 7.90625,0.59375 2.7083,0.37505 5.51038,0.94797 8.40625,1.71875" />
    </g>
  </g>
  <g
     inkscape:groupmode="layer"
     id="layer2"
     inkscape:label="shadow"
     style="display:inline"
     transform="translate(-107.18311,-475.01784)" />
  <g
     inkscape:groupmode="layer"
     id="layer3"
     inkscape:label="his"
     style="display:inline"
     transform="translate(-107.18311,-475.01784)">
    <path
       style="fill:none;stroke:url(#linearGradient3887);stroke-width:1px;stroke-linecap:butt;stroke-linejoin:miter;stroke-opacity:1"
       d="m 128.37919,495.44016 6.18907,-1.44411"
       id="path3879"
       inkscape:connector-curvature="0"
       inkscape:export-filename="/home/rob/Code/python/Minifier/path3866.png"
       inkscape:export-xdpi="90"
       inkscape:export-ydpi="90" />
    <path
       style="fill:none;stroke:url(#linearGradient3920);stroke-width:1px;stroke-linecap:butt;stroke-linejoin:miter;stroke-opacity:1"
       d="m 128.09037,492.20122 6.18907,-1.44411"
       id="path3879-7"
       inkscape:connector-curvature="0"
       inkscape:export-filename="/home/rob/Code/python/Minifier/path3866.png"
       inkscape:export-xdpi="90"
       inkscape:export-ydpi="90" />
    <path
       style="fill:none;stroke:url(#linearGradient3920-1);stroke-width:1px;stroke-linecap:butt;stroke-linejoin:miter;stroke-opacity:1"
       d="m 128.09037,498.08083 6.18907,-1.44411"
       id="path3879-9"
       inkscape:connector-curvature="0"
       inkscape:export-filename="/home/rob/Code/python/Minifier/path3866.png"
       inkscape:export-xdpi="90"
       inkscape:export-ydpi="90" />
  </g>
  <g
     inkscape:groupmode="layer"
     id="layer6"
     inkscape:label="outline"
     style="display:inline"
     transform="translate(-107.18311,-475.01784)">
    <path
       style="fill:none;stroke:#000000;stroke-width:1;stroke-linecap:butt;stroke-linejoin:miter;stroke-miterlimit:4.5999999;stroke-opacity:1;stroke-dasharray:none;display:inline"
       d="m 129.31763,497.59816 c 3.25663,0.0214 3.23308,-0.0432 6.48927,-0.063 -0.98567,-0.74078 -1.91639,-1.65493 -1.91639,-1.65493 l 1.65071,-1.40647 -1.61343,-1.36302 1.64586,-1.45531 -1.52624,-1.10319 1.47092,-2.10078 -8.37778,-0.12168 0.008,2.11183 1.83055,1.43326 -1.68424,1.28377 1.78053,1.2798 -1.62523,1.69018 c 0,0 1.69891,1.12703 2.21387,1.63573"
       id="path3847-4"
       inkscape:connector-curvature="0"
       sodipodi:nodetypes="ccccccccccccccc"
       inkscape:export-filename="/home/rob/Code/python/Minifier/path3866.png"
       inkscape:export-xdpi="90"
       inkscape:export-ydpi="90" />
  </g>
  <g
     inkscape:groupmode="layer"
     id="layer4"
     inkscape:label="turns"
     style="display:inline"
     transform="translate(-107.18311,-475.01784)">
    <path
       style="fill:none;stroke:#000000;stroke-width:1px;stroke-linecap:butt;stroke-linejoin:miter;stroke-opacity:1"
       d="m 127.40793,496.25552 7.72874,-1.72241"
       id="path3862"
       inkscape:connector-curvature="0"
       inkscape:export-filename="/home/rob/Code/python/Minifier/path3866.png"
       inkscape:export-xdpi="90"
       inkscape:export-ydpi="90" />
    <path
       style="fill:none;stroke:#000000;stroke-width:1px;stroke-linecap:butt;stroke-linejoin:miter;stroke-opacity:1"
       d="m 127.34169,493.27443 7.57416,-1.58991"
       id="path3864"
       inkscape:connector-curvature="0"
       inkscape:export-filename="/home/rob/Code/python/Minifier/path3866.png"
       inkscape:export-xdpi="90"
       inkscape:export-ydpi="90" />
    <path
       style="fill:none;stroke:#000000;stroke-width:1px;stroke-linecap:butt;stroke-linejoin:miter;stroke-opacity:1"
       d="m 127.0767,490.53625 7.99373,-1.87698"
       id="path3866"
       inkscape:connector-curvature="0"
       inkscape:export-xdpi="90"
       inkscape:export-ydpi="90" />
  </g>
</svg>
